<svg width="33" height="47" viewBox="0 0 33 47" fill="none" xmlns="http://www.w3.org/2000/svg">
<mask id="mask0_25_2166" style="mask-type:luminance" maskUnits="userSpaceOnUse" x="0" y="0" width="33" height="47">
<path d="M0 0H32.4847V47H0V0Z" fill="white"/>
</mask>
<g mask="url(#mask0_25_2166)">
<path d="M29.0717 10.933L29.0394 10.9141L28.9648 10.8913C28.9949 10.9166 29.0324 10.9313 29.0717 10.933Z" fill="#00C4AC"/>
<path d="M29.5452 14.2907L29.5049 14.302L29.5452 14.2907Z" fill="#00C4AC"/>
<path d="M29.0875 10.9282C29.0824 10.9276 29.0774 10.9264 29.0725 10.9247C29.0722 10.928 29.0722 10.9314 29.0725 10.9347C29.078 10.9339 29.0832 10.9317 29.0875 10.9282Z" fill="#00C4AC"/>
<path d="M29.0723 10.9353H29.08V10.9304L29.0723 10.9353Z" fill="#00C4AC"/>
<path d="M29.5117 14.2847L29.5661 14.2537L29.5864 14.2423L29.6047 14.2227C29.5702 14.2376 29.5387 14.2586 29.5117 14.2847Z" fill="#00C4AC"/>
<path d="M29.1663 11.0064L29.1132 10.9558L29.0771 10.9362C29.0965 10.9704 29.1285 10.9956 29.1663 11.0064Z" fill="#00C4AC"/>
<path d="M15.8015 43.5891C15.7591 43.6075 15.7219 43.6361 15.6934 43.6725L15.7269 43.6512C15.7497 43.6303 15.7819 43.6056 15.8015 43.5891Z" fill="#00C4AC"/>
<path d="M23.5606 42.0622C23.5606 42.0145 23.5372 42.0233 23.5429 42.1938C23.5429 42.1802 23.5486 42.1662 23.5511 42.153C23.5543 42.1225 23.5568 42.0927 23.5606 42.0622Z" fill="#00C4AC"/>
<path d="M22.7595 43.5891C22.717 43.6075 22.6799 43.6361 22.6514 43.6725L22.6849 43.6512C22.7076 43.6303 22.7399 43.6056 22.7595 43.5891Z" fill="#00C4AC"/>
<path d="M10.3365 43.9522C10.3042 43.9242 10.2648 43.9058 10.2227 43.8989C10.2568 43.9154 10.2909 43.9319 10.3137 43.9444L10.3365 43.9522Z" fill="#00C4AC"/>
<path d="M9.10936 42.7744C9.10432 42.7248 9.08904 42.6766 9.06445 42.6329C9.08187 42.6781 9.09642 42.7248 9.10807 42.7718L9.10936 42.7744Z" fill="#00C4AC"/>
<path d="M17.368 21.7117C15.6798 22.4345 13.764 23.2539 11.2809 23.2539C10.2422 23.2518 9.20853 23.1093 8.20801 22.8303L9.92533 40.4619C9.98611 41.1987 10.3218 41.8859 10.8658 42.3867C11.4098 42.8876 12.1222 43.1654 12.8617 43.1654C12.8617 43.1654 15.2966 43.2918 16.1091 43.2918C16.9836 43.2918 19.6057 43.1654 19.6057 43.1654C20.3451 43.1654 21.0573 42.8872 21.6012 42.3864C22.1451 41.8855 22.4807 41.1987 22.5415 40.4619L24.3808 20.9783C23.5588 20.6975 22.7292 20.511 21.7941 20.511C20.1767 20.5104 18.8735 21.0674 17.368 21.7117Z" fill="#00C4AC"/>
<path d="M2.8916 14.1894L2.92099 14.2169L2.94016 14.2284C2.92541 14.2137 2.9091 14.2006 2.8916 14.1894Z" fill="#00C4AC"/>
<path d="M32.3218 12.5621L32.0633 11.2577C31.8312 10.0873 31.3045 8.98141 30.1031 8.55841C29.7181 8.42307 29.2811 8.36494 28.9859 8.08481C28.6906 7.80472 28.6033 7.36971 28.5351 6.96629C28.4086 6.22587 28.2897 5.48482 28.1601 4.74568C28.0482 4.11021 27.9597 3.39635 27.6682 2.81339C27.2888 2.0306 26.5016 1.57283 25.7188 1.26996C25.3177 1.12021 24.9084 0.993582 24.4928 0.890579C22.5371 0.374645 20.4809 0.184955 18.4689 0.0768069C16.054 -0.0564394 13.6327 -0.0162744 11.2235 0.196971C9.43031 0.360093 7.54164 0.557353 5.83762 1.17765C5.21483 1.40464 4.57303 1.67716 4.09947 2.15833C3.51838 2.74952 3.32869 3.66384 3.75294 4.40106C4.05456 4.9246 4.56546 5.2945 5.10734 5.53921C5.81315 5.8545 6.55026 6.09442 7.30645 6.25497C9.41197 6.72034 11.5928 6.90305 13.7438 6.98084C16.128 7.07705 18.5159 6.99907 20.8887 6.7475C21.4755 6.68301 22.0612 6.60565 22.6459 6.51547C23.3344 6.40986 23.7764 5.50948 23.5735 4.88223C23.3306 4.13237 22.6781 3.84151 21.9402 3.95469C21.8315 3.97174 21.7234 3.98754 21.6146 4.00335L21.5362 4.01474C21.2862 4.04638 21.0363 4.07585 20.7863 4.10326C20.2699 4.1589 19.7523 4.20443 19.2334 4.23985C18.0712 4.32077 16.9059 4.35807 15.7412 4.35998C14.5968 4.35998 13.4517 4.32772 12.3098 4.25249C11.7888 4.21836 11.269 4.17492 10.7505 4.12222C10.5147 4.09757 10.2795 4.07166 10.0443 4.04256L9.82042 4.01411L9.77177 4.00717L9.53971 3.97365C9.06548 3.90218 8.59126 3.82001 8.1221 3.72072C8.07477 3.71021 8.0324 3.6839 8.00205 3.64605C7.97169 3.60824 7.95516 3.5612 7.95516 3.51269C7.95516 3.46422 7.97169 3.41715 8.00205 3.37934C8.0324 3.34152 8.07477 3.31518 8.1221 3.30467H8.13096C8.53753 3.21805 8.94723 3.14408 9.35821 3.07959C9.49524 3.05809 9.63264 3.037 9.77048 3.01635H9.77427C10.0316 2.99929 10.2902 2.95314 10.5463 2.92279C12.7743 2.69102 15.0155 2.61201 17.2543 2.68628C18.3412 2.71792 19.4275 2.78179 20.5093 2.89181C20.742 2.9158 20.9735 2.94112 21.2049 2.96957C21.2934 2.98033 21.3825 2.99297 21.4717 3.0037L21.6513 3.02965C22.1748 3.10763 22.6956 3.20225 23.2137 3.31352C23.9813 3.48047 24.967 3.53485 25.3084 4.37578C25.4172 4.6426 25.4665 4.93916 25.5266 5.21924L25.6031 5.5765C25.6051 5.5829 25.6066 5.58948 25.6075 5.59609C25.7884 6.43915 25.9694 7.28221 26.1507 8.12527C26.164 8.18756 26.1643 8.2519 26.1516 8.3143C26.1389 8.37673 26.1135 8.43582 26.0769 8.488C26.0404 8.54015 25.9935 8.58421 25.9392 8.61743C25.8848 8.65065 25.8243 8.67229 25.7612 8.68108H25.7561L25.6455 8.69625L25.5361 8.71077C25.1896 8.75589 24.8427 8.79804 24.4953 8.83725C23.8112 8.91523 23.126 8.98266 22.4398 9.03958C21.0761 9.15295 19.7097 9.22736 18.3406 9.26279C17.643 9.28131 16.9455 9.28998 16.2483 9.28869C13.4732 9.28653 10.7004 9.12521 7.9438 8.80561C7.64534 8.77022 7.34691 8.73226 7.04845 8.69372C7.27989 8.72344 6.88026 8.67093 6.79934 8.65958C6.60965 8.63301 6.41996 8.60541 6.23027 8.57675C5.59354 8.48124 4.96064 8.36365 4.32517 8.26057C3.55693 8.13413 2.82224 8.19737 2.12734 8.57675C1.55695 8.88888 1.09529 9.36752 0.803955 9.94882C0.504243 10.5685 0.415093 11.2431 0.281038 11.9089C0.146984 12.5747 -0.0616683 13.2911 0.0173755 13.9746C0.187443 15.4498 1.21872 16.6486 2.70207 16.9167C4.09756 17.1696 5.50061 17.3745 6.90745 17.549C12.4339 18.2258 18.0171 18.3068 23.5608 17.7905C24.0123 17.7484 24.4631 17.7024 24.9133 17.6527C25.0539 17.6372 25.1962 17.6534 25.3297 17.7001C25.4633 17.7467 25.5847 17.8227 25.6851 17.9224C25.7855 18.022 25.8623 18.1429 25.9099 18.2761C25.9576 18.4093 25.9748 18.5514 25.9603 18.6921L25.82 20.0567C25.5371 22.8139 25.2543 25.5709 24.9714 28.3277C24.6764 31.2227 24.3794 34.1176 24.0805 37.012C23.9962 37.8275 23.9119 38.6425 23.8276 39.4572C23.7467 40.2598 23.7353 41.0873 23.5829 41.8803C23.3426 43.1272 22.4985 43.893 21.2668 44.173C20.1384 44.4299 18.9856 44.5647 17.8284 44.575C16.5455 44.582 15.2632 44.5251 13.9803 44.532C12.6107 44.5398 10.9333 44.4133 9.87609 43.394C8.94723 42.4988 8.81887 41.0969 8.69242 39.8846C8.52382 38.2798 8.3567 36.6754 8.191 35.0711L7.26155 26.15L6.66025 20.3779C6.65011 20.2824 6.64 20.1882 6.63052 20.092C6.55842 19.4035 6.07093 18.7295 5.30269 18.7642C4.64513 18.7933 3.89776 19.3523 3.97489 20.092L4.42064 24.3714L5.34252 33.2235C5.60516 35.7379 5.86713 38.2526 6.12848 40.768C6.17908 41.2498 6.22648 41.733 6.27958 42.2147C6.56856 44.8477 8.57924 46.2665 11.0692 46.666C12.5235 46.9 14.0132 46.9482 15.4889 46.9721C17.3808 47.0026 19.2916 47.0753 21.1524 46.7325C23.9098 46.2265 25.9787 44.3854 26.2739 41.5294C26.3583 40.7048 26.4426 39.8802 26.5269 39.0552C26.8072 36.327 27.0871 33.5987 27.3666 30.8701L28.2809 21.9548L28.7001 17.8689C28.721 17.6663 28.8065 17.4758 28.9441 17.3256C29.0816 17.1754 29.2639 17.0735 29.4639 17.0349C30.2523 16.8813 31.0061 16.6189 31.5669 16.0188C32.4597 15.0634 32.6374 13.8178 32.3218 12.5621ZM2.66161 13.4435C2.67363 13.4378 2.65151 13.5409 2.64203 13.5889C2.64011 13.5162 2.6439 13.4517 2.66161 13.4435ZM2.73812 14.0353C2.74444 14.0309 2.7634 14.0562 2.78303 14.0866C2.7533 14.0587 2.73434 14.0379 2.7375 14.0353H2.73812ZM2.81338 14.1346C2.84057 14.1807 2.85509 14.2098 2.81338 14.1346V14.1346ZM2.96448 14.2572H2.96827C2.96827 14.2617 2.97525 14.2661 2.97775 14.2705C2.97356 14.2657 2.96893 14.2612 2.96386 14.2572H2.96448ZM29.4272 14.0739C29.144 14.3432 28.7171 14.4684 28.2954 14.531C23.5658 15.2329 18.7674 15.5882 13.986 15.4314C10.564 15.3145 7.17809 14.9344 3.79027 14.4558C3.4583 14.409 3.09854 14.3483 2.87026 14.1036C2.44032 13.642 2.65151 12.7126 2.7634 12.1549C2.86585 11.644 3.06187 10.963 3.66948 10.8903C4.61794 10.779 5.71937 11.1792 6.65771 11.3215C7.7874 11.4939 8.92132 11.632 10.0594 11.7357C14.9167 12.1783 19.8556 12.1094 24.6913 11.4619C25.5727 11.3434 26.451 11.2058 27.3261 11.049C28.1057 10.9093 28.9701 10.6469 29.4411 11.4543C29.7642 12.0044 29.8072 12.7404 29.7573 13.3619C29.7419 13.6327 29.6236 13.8874 29.4266 14.0739H29.4272Z" fill="#00C4AC"/>
</g>
</svg>
