<svg width="24" height="46" viewBox="0 0 24 46" fill="none" xmlns="http://www.w3.org/2000/svg">
<path d="M23.375 1.26478C23.375 0.933261 23.2631 0.615319 23.0638 0.380899C22.8645 0.146478 22.5943 0.014782 22.3125 0.014782H17C14.3249 -0.141991 11.7058 0.953261 9.71491 3.06123C7.72405 5.1692 6.52329 8.11852 6.375 11.2648V18.0148H1.0625C0.780707 18.0148 0.510457 18.1465 0.311199 18.3809C0.111942 18.6153 0 18.9333 0 19.2648V25.7648C0 26.0963 0.111942 26.4142 0.311199 26.6487C0.510457 26.8831 0.780707 27.0148 1.0625 27.0148H6.375V43.7648C6.375 44.0963 6.48694 44.4142 6.6862 44.6487C6.88546 44.8831 7.15571 45.0148 7.4375 45.0148H13.8125C14.0943 45.0148 14.3645 44.8831 14.5638 44.6487C14.7631 44.4142 14.875 44.0963 14.875 43.7648V27.0148H20.4425C20.6788 27.0188 20.9094 26.93 21.098 26.7625C21.2866 26.5949 21.4223 26.3582 21.4838 26.0898L23.0138 19.5898C23.056 19.4051 23.0617 19.2114 23.0304 19.0238C22.999 18.8361 22.9315 18.6594 22.8329 18.5072C22.7344 18.3551 22.6075 18.2316 22.462 18.1462C22.3165 18.0608 22.1563 18.0159 21.9938 18.0148H14.875V11.2648C14.9279 10.646 15.1749 10.0726 15.5678 9.65652C15.9607 9.24047 16.4714 9.01167 17 9.01478H22.3125C22.5943 9.01478 22.8645 8.88309 23.0638 8.64866C23.2631 8.41424 23.375 8.0963 23.375 7.76478V1.26478Z" fill="#00C4AC"/>
</svg>
