<svg width="447" height="198" viewBox="0 0 447 198" fill="none" xmlns="http://www.w3.org/2000/svg">
<path d="M110.5 73.924V3.46H116.068V37.156H154.084V3.46H159.652V73.924H154.084V42.148H116.068V73.924H110.5Z" fill="white"/>
<path d="M194.289 74.5C189.041 74.5 184.881 73.7 181.809 72.1C178.801 70.436 176.658 67.684 175.378 63.844C174.098 60.004 173.457 54.788 173.457 48.196C173.457 41.476 174.129 36.228 175.473 32.452C176.817 28.676 179.026 26.02 182.098 24.484C185.234 22.948 189.393 22.18 194.577 22.18C198.929 22.18 202.481 22.692 205.233 23.716C208.049 24.676 210.129 26.372 211.473 28.804C212.881 31.236 213.585 34.596 213.585 38.884C213.585 41.764 213.009 44.1 211.857 45.892C210.769 47.62 209.169 48.868 207.057 49.636C204.945 50.404 202.449 50.788 199.569 50.788H179.025C179.025 55.46 179.473 59.204 180.369 62.02C181.265 64.836 182.865 66.884 185.169 68.164C187.537 69.444 190.994 70.084 195.538 70.084H212.434V73.444C209.362 73.764 206.449 74.02 203.697 74.212C201.009 74.404 197.873 74.5 194.289 74.5ZM178.93 46.852H199.185C202.321 46.852 204.657 46.308 206.193 45.22C207.729 44.068 208.497 41.956 208.497 38.884C208.497 35.684 208.017 33.188 207.057 31.396C206.161 29.604 204.689 28.356 202.641 27.652C200.657 26.884 197.969 26.5 194.577 26.5C190.545 26.5 187.377 27.076 185.073 28.228C182.833 29.38 181.233 31.428 180.273 34.372C179.377 37.316 178.93 41.476 178.93 46.852Z" fill="white"/>
<path d="M239.985 74.02C237.297 74.02 234.993 73.508 233.073 72.484C231.217 71.46 229.809 69.764 228.849 67.396C227.889 65.028 227.409 61.764 227.409 57.604V0.676003H232.977V57.028C232.977 60.356 233.265 62.884 233.841 64.612C234.481 66.34 235.377 67.524 236.529 68.164C237.745 68.804 239.121 69.22 240.657 69.412L246.225 70.084V74.02H239.985Z" fill="white"/>
<path d="M267.641 74.02C264.953 74.02 262.649 73.508 260.729 72.484C258.873 71.46 257.465 69.764 256.505 67.396C255.545 65.028 255.065 61.764 255.065 57.604V0.676003H260.633V57.028C260.633 60.356 260.921 62.884 261.497 64.612C262.137 66.34 263.033 67.524 264.185 68.164C265.401 68.804 266.777 69.22 268.313 69.412L273.881 70.084V74.02H267.641Z" fill="white"/>
<path d="M302.497 74.5C298.977 74.5 295.841 74.148 293.089 73.444C290.401 72.676 288.129 71.364 286.273 69.508C284.417 67.588 283.041 64.932 282.145 61.54C281.249 58.084 280.801 53.668 280.801 48.292C280.801 42.852 281.249 38.436 282.145 35.044C283.105 31.588 284.481 28.932 286.273 27.076C288.129 25.22 290.401 23.94 293.089 23.236C295.841 22.532 298.977 22.18 302.497 22.18C306.017 22.18 309.121 22.532 311.809 23.236C314.561 23.94 316.865 25.22 318.721 27.076C320.577 28.932 321.953 31.588 322.849 35.044C323.809 38.436 324.289 42.852 324.289 48.292C324.289 53.668 323.809 58.084 322.849 61.54C321.953 64.996 320.577 67.652 318.721 69.508C316.929 71.364 314.657 72.676 311.905 73.444C309.153 74.148 306.017 74.5 302.497 74.5ZM302.497 69.796C305.057 69.796 307.361 69.572 309.409 69.124C311.457 68.612 313.153 67.652 314.497 66.244C315.841 64.772 316.865 62.596 317.569 59.716C318.337 56.836 318.721 53.028 318.721 48.292C318.721 43.492 318.337 39.684 317.569 36.868C316.865 33.988 315.841 31.844 314.497 30.436C313.153 28.964 311.457 28.004 309.409 27.556C307.361 27.044 305.057 26.788 302.497 26.788C299.873 26.788 297.569 27.044 295.585 27.556C293.601 28.004 291.905 28.964 290.497 30.436C289.153 31.844 288.129 33.988 287.425 36.868C286.721 39.684 286.369 43.492 286.369 48.292C286.369 53.028 286.721 56.836 287.425 59.716C288.129 62.596 289.153 64.772 290.497 66.244C291.905 67.652 293.601 68.612 295.585 69.124C297.569 69.572 299.873 69.796 302.497 69.796Z" fill="white"/>
<path d="M0 197.248V126.784H5.568V197.248H0Z" fill="white"/>
<path d="M20.4195 145.888C20.0995 145.888 19.8435 145.888 19.6515 145.888C19.4595 145.824 19.2355 145.76 18.9795 145.696V143.776C19.7475 143.776 20.2595 143.584 20.5155 143.2C20.8355 142.816 20.9955 142.336 20.9955 141.76V136.288H20.2275C19.7795 136.288 19.3955 136.16 19.0755 135.904C18.8195 135.584 18.6915 135.136 18.6915 134.56V127.552C18.6915 126.4 19.2035 125.824 20.2275 125.824H23.4915C23.9395 125.824 24.2275 125.984 24.3555 126.304C24.5475 126.624 24.6435 127.04 24.6435 127.552V140.896C24.6435 142.368 24.3875 143.456 23.8755 144.16C23.4275 144.864 22.8835 145.344 22.2435 145.6C21.6035 145.792 20.9955 145.888 20.4195 145.888Z" fill="white"/>
<path d="M37.971 197.248V146.08H42.099L43.539 151.84C46.163 150.048 49.139 148.512 52.467 147.232C55.795 145.888 59.411 145.216 63.315 145.216C66.515 145.216 69.267 145.952 71.571 147.424C73.875 148.832 75.603 150.688 76.755 152.992C78.355 151.712 80.339 150.496 82.707 149.344C85.139 148.192 87.699 147.232 90.387 146.464C93.139 145.632 95.731 145.216 98.163 145.216C101.747 145.216 104.723 146.016 107.091 147.616C109.523 149.152 111.315 151.232 112.467 153.856C113.619 156.416 114.195 159.232 114.195 162.304V197.248H108.627V162.688C108.627 160.32 108.147 158.208 107.187 156.352C106.227 154.496 104.851 153.024 103.059 151.936C101.331 150.848 99.219 150.304 96.723 150.304C93.587 150.304 90.355 150.912 87.027 152.128C83.699 153.28 80.563 154.72 77.619 156.448C78.003 157.408 78.291 158.432 78.483 159.52C78.739 160.544 78.867 161.6 78.867 162.688V197.248H73.299V162.688C73.299 160.32 72.819 158.208 71.859 156.352C70.899 154.496 69.555 153.024 67.827 151.936C66.099 150.848 63.987 150.304 61.491 150.304C59.059 150.304 56.851 150.528 54.867 150.976C52.947 151.36 51.059 151.968 49.203 152.8C47.411 153.632 45.523 154.592 43.539 155.68V197.248H37.971Z" fill="white"/>
<path d="M178.987 197.824C175.083 197.824 171.499 197.472 168.235 196.768C164.971 196.064 162.155 194.88 159.787 193.216C157.419 191.488 155.595 189.152 154.315 186.208C153.099 183.264 152.491 179.552 152.491 175.072V126.496H162.187V174.976C162.187 178.624 162.827 181.472 164.107 183.52C165.451 185.504 167.371 186.944 169.867 187.84C172.427 188.672 175.467 189.088 178.987 189.088C182.571 189.088 185.611 188.672 188.107 187.84C190.667 186.944 192.587 185.504 193.867 183.52C195.211 181.472 195.883 178.624 195.883 174.976V126.496H205.579V175.072C205.579 179.552 204.939 183.264 203.659 186.208C202.379 189.152 200.555 191.488 198.187 193.216C195.883 194.88 193.099 196.064 189.835 196.768C186.571 197.472 182.955 197.824 178.987 197.824Z" fill="white"/>
<path d="M234.255 197.248V135.136H213.135V126.496H265.071V135.136H243.951V197.248H234.255Z" fill="white"/>
<path d="M294.086 197.824C292.55 197.824 290.79 197.76 288.806 197.632C286.886 197.568 284.902 197.44 282.854 197.248C280.87 197.056 278.95 196.864 277.094 196.672C275.302 196.48 273.766 196.224 272.486 195.904V188.416C274.15 188.544 276.134 188.672 278.438 188.8C280.806 188.928 283.302 189.024 285.926 189.088C288.614 189.152 291.206 189.184 293.702 189.184C296.454 189.184 298.886 188.928 300.998 188.416C303.174 187.904 304.87 186.944 306.086 185.536C307.366 184.128 308.006 182.144 308.006 179.584V175.456C308.006 172.576 307.206 170.368 305.606 168.832C304.07 167.296 301.702 166.528 298.502 166.528H291.302C285.158 166.528 280.39 165.184 276.998 162.496C273.67 159.808 272.006 155.2 272.006 148.672V144.832C272.006 138.048 273.83 133.216 277.478 130.336C281.19 127.392 286.438 125.92 293.222 125.92C295.462 125.92 297.862 126.048 300.422 126.304C302.982 126.496 305.478 126.752 307.91 127.072C310.342 127.392 312.358 127.712 313.958 128.032V135.52C311.078 135.328 307.846 135.136 304.262 134.944C300.742 134.688 297.414 134.56 294.278 134.56C291.59 134.56 289.254 134.88 287.27 135.52C285.35 136.096 283.846 137.152 282.758 138.688C281.734 140.224 281.222 142.4 281.222 145.216V148.096C281.222 151.552 282.15 153.952 284.006 155.296C285.862 156.64 288.454 157.312 291.782 157.312H299.558C303.59 157.312 306.886 158.048 309.446 159.52C312.07 160.992 314.022 163.008 315.302 165.568C316.582 168.128 317.222 171.04 317.222 174.304V179.296C317.222 184.288 316.198 188.128 314.15 190.816C312.102 193.504 309.35 195.36 305.894 196.384C302.438 197.344 298.502 197.824 294.086 197.824Z" fill="white"/>
<path d="M325.289 197.248L348.905 126.496H361.193L384.809 197.248H374.729L368.489 178.72H341.417L335.273 197.248H325.289ZM343.721 169.984H366.089L354.953 134.944L343.721 169.984Z" fill="white"/>
<path d="M410.593 197.248L386.977 126.496H396.961L416.737 186.976L436.609 126.496H446.497L422.881 197.248H410.593Z" fill="white"/>
</svg>
