<svg width="448" height="203" viewBox="0 0 448 203" fill="none" xmlns="http://www.w3.org/2000/svg">
<path d="M0.775879 74V3.53601H6.34388V37.232H44.3599V3.53601H49.9279V74H44.3599V42.224H6.34388V74H0.775879Z" fill="white"/>
<path d="M84.5651 74.576C79.3171 74.576 75.1571 73.776 72.0851 72.176C69.0771 70.512 66.9331 67.76 65.6531 63.92C64.3731 60.08 63.7331 54.864 63.7331 48.272C63.7331 41.552 64.4051 36.304 65.7491 32.528C67.0931 28.752 69.3011 26.096 72.3731 24.56C75.5091 23.024 79.6691 22.256 84.8531 22.256C89.2051 22.256 92.7571 22.768 95.5091 23.792C98.3251 24.752 100.405 26.448 101.749 28.88C103.157 31.312 103.861 34.672 103.861 38.96C103.861 41.84 103.285 44.176 102.133 45.968C101.045 47.696 99.4451 48.944 97.3331 49.712C95.2211 50.48 92.7251 50.864 89.8451 50.864H69.3011C69.3011 55.536 69.7491 59.28 70.6451 62.096C71.5411 64.912 73.1411 66.96 75.4451 68.24C77.8131 69.52 81.2691 70.16 85.8131 70.16H102.709V73.52C99.6371 73.84 96.7251 74.096 93.9731 74.288C91.2851 74.48 88.1491 74.576 84.5651 74.576ZM69.2051 46.928H89.4611C92.5971 46.928 94.9331 46.384 96.4691 45.296C98.0051 44.144 98.7731 42.032 98.7731 38.96C98.7731 35.76 98.2931 33.264 97.3331 31.472C96.4371 29.68 94.9651 28.432 92.9171 27.728C90.9331 26.96 88.2451 26.576 84.8531 26.576C80.8211 26.576 77.6531 27.152 75.3491 28.304C73.1091 29.456 71.5091 31.504 70.5491 34.448C69.6531 37.392 69.2051 41.552 69.2051 46.928Z" fill="white"/>
<path d="M130.26 74.096C127.572 74.096 125.268 73.584 123.348 72.56C121.492 71.536 120.084 69.84 119.124 67.472C118.164 65.104 117.684 61.84 117.684 57.68V0.752014H123.252V57.104C123.252 60.432 123.54 62.96 124.116 64.688C124.756 66.416 125.652 67.6 126.804 68.24C128.02 68.88 129.396 69.296 130.932 69.488L136.5 70.16V74.096H130.26Z" fill="white"/>
<path d="M157.917 74.096C155.229 74.096 152.925 73.584 151.005 72.56C149.149 71.536 147.741 69.84 146.781 67.472C145.821 65.104 145.341 61.84 145.341 57.68V0.752014H150.909V57.104C150.909 60.432 151.197 62.96 151.773 64.688C152.413 66.416 153.309 67.6 154.461 68.24C155.677 68.88 157.053 69.296 158.589 69.488L164.157 70.16V74.096H157.917Z" fill="white"/>
<path d="M192.773 74.576C189.253 74.576 186.117 74.224 183.365 73.52C180.677 72.752 178.405 71.44 176.549 69.584C174.693 67.664 173.317 65.008 172.421 61.616C171.525 58.16 171.077 53.744 171.077 48.368C171.077 42.928 171.525 38.512 172.421 35.12C173.381 31.664 174.757 29.008 176.549 27.152C178.405 25.296 180.677 24.016 183.365 23.312C186.117 22.608 189.253 22.256 192.773 22.256C196.293 22.256 199.397 22.608 202.085 23.312C204.837 24.016 207.141 25.296 208.997 27.152C210.853 29.008 212.229 31.664 213.125 35.12C214.085 38.512 214.565 42.928 214.565 48.368C214.565 53.744 214.085 58.16 213.125 61.616C212.229 65.072 210.853 67.728 208.997 69.584C207.205 71.44 204.933 72.752 202.181 73.52C199.429 74.224 196.293 74.576 192.773 74.576ZM192.773 69.872C195.333 69.872 197.637 69.648 199.685 69.2C201.733 68.688 203.429 67.728 204.773 66.32C206.117 64.848 207.141 62.672 207.845 59.792C208.613 56.912 208.997 53.104 208.997 48.368C208.997 43.568 208.613 39.76 207.845 36.944C207.141 34.064 206.117 31.92 204.773 30.512C203.429 29.04 201.733 28.08 199.685 27.632C197.637 27.12 195.333 26.864 192.773 26.864C190.149 26.864 187.845 27.12 185.861 27.632C183.877 28.08 182.181 29.04 180.773 30.512C179.429 31.92 178.405 34.064 177.701 36.944C176.997 39.76 176.645 43.568 176.645 48.368C176.645 53.104 176.997 56.912 177.701 59.792C178.405 62.672 179.429 64.848 180.773 66.32C182.181 67.728 183.877 68.688 185.861 69.2C187.845 69.648 190.149 69.872 192.773 69.872Z" fill="white"/>
<path d="M0.775879 202V131.536H6.34388V202H0.775879Z" fill="white"/>
<path d="M21.1954 150.64C20.8754 150.64 20.6194 150.64 20.4274 150.64C20.2354 150.576 20.0114 150.512 19.7554 150.448V148.528C20.5234 148.528 21.0354 148.336 21.2914 147.952C21.6114 147.568 21.7714 147.088 21.7714 146.512V141.04H21.0034C20.5554 141.04 20.1714 140.912 19.8514 140.656C19.5954 140.336 19.4674 139.888 19.4674 139.312V132.304C19.4674 131.152 19.9794 130.576 21.0034 130.576H24.2674C24.7154 130.576 25.0034 130.736 25.1314 131.056C25.3234 131.376 25.4194 131.792 25.4194 132.304V145.648C25.4194 147.12 25.1634 148.208 24.6514 148.912C24.2034 149.616 23.6594 150.096 23.0194 150.352C22.3794 150.544 21.7714 150.64 21.1954 150.64Z" fill="white"/>
<path d="M38.7469 202V150.832H42.8749L44.3149 156.592C46.9389 154.8 49.9149 153.264 53.2429 151.984C56.5709 150.64 60.1869 149.968 64.0909 149.968C67.2909 149.968 70.0429 150.704 72.3469 152.176C74.6509 153.584 76.3789 155.44 77.5309 157.744C79.1309 156.464 81.1149 155.248 83.4829 154.096C85.9149 152.944 88.4749 151.984 91.1629 151.216C93.9149 150.384 96.5069 149.968 98.9389 149.968C102.523 149.968 105.499 150.768 107.867 152.368C110.299 153.904 112.091 155.984 113.243 158.608C114.395 161.168 114.971 163.984 114.971 167.056V202H109.403V167.44C109.403 165.072 108.923 162.96 107.963 161.104C107.003 159.248 105.627 157.776 103.835 156.688C102.107 155.6 99.9949 155.056 97.4989 155.056C94.3629 155.056 91.1309 155.664 87.8029 156.88C84.4749 158.032 81.3389 159.472 78.3949 161.2C78.7789 162.16 79.0669 163.184 79.2589 164.272C79.5149 165.296 79.6429 166.352 79.6429 167.44V202H74.0749V167.44C74.0749 165.072 73.5949 162.96 72.6349 161.104C71.6749 159.248 70.3309 157.776 68.6029 156.688C66.8749 155.6 64.7629 155.056 62.2669 155.056C59.8349 155.056 57.6269 155.28 55.6429 155.728C53.7229 156.112 51.8349 156.72 49.9789 157.552C48.1869 158.384 46.2989 159.344 44.3149 160.432V202H38.7469Z" fill="white"/>
<path d="M179.763 202.576C175.859 202.576 172.275 202.224 169.011 201.52C165.747 200.816 162.931 199.632 160.563 197.968C158.195 196.24 156.371 193.904 155.091 190.96C153.875 188.016 153.267 184.304 153.267 179.824V131.248H162.963V179.728C162.963 183.376 163.603 186.224 164.883 188.272C166.227 190.256 168.147 191.696 170.643 192.592C173.203 193.424 176.243 193.84 179.763 193.84C183.347 193.84 186.387 193.424 188.883 192.592C191.443 191.696 193.363 190.256 194.643 188.272C195.987 186.224 196.659 183.376 196.659 179.728V131.248H206.355V179.824C206.355 184.304 205.715 188.016 204.435 190.96C203.155 193.904 201.331 196.24 198.963 197.968C196.659 199.632 193.875 200.816 190.611 201.52C187.347 202.224 183.731 202.576 179.763 202.576Z" fill="white"/>
<path d="M235.031 202V139.888H213.911V131.248H265.847V139.888H244.727V202H235.031Z" fill="white"/>
<path d="M294.862 202.576C293.326 202.576 291.566 202.512 289.582 202.384C287.662 202.32 285.678 202.192 283.63 202C281.646 201.808 279.726 201.616 277.87 201.424C276.078 201.232 274.542 200.976 273.262 200.656V193.168C274.926 193.296 276.91 193.424 279.214 193.552C281.582 193.68 284.078 193.776 286.702 193.84C289.39 193.904 291.982 193.936 294.478 193.936C297.23 193.936 299.662 193.68 301.774 193.168C303.95 192.656 305.646 191.696 306.862 190.288C308.142 188.88 308.782 186.896 308.782 184.336V180.208C308.782 177.328 307.982 175.12 306.382 173.584C304.846 172.048 302.478 171.28 299.278 171.28H292.078C285.934 171.28 281.166 169.936 277.774 167.248C274.446 164.56 272.782 159.952 272.782 153.424V149.584C272.782 142.8 274.606 137.968 278.254 135.088C281.966 132.144 287.214 130.672 293.998 130.672C296.238 130.672 298.638 130.8 301.198 131.056C303.758 131.248 306.254 131.504 308.686 131.824C311.118 132.144 313.134 132.464 314.734 132.784V140.272C311.854 140.08 308.622 139.888 305.038 139.696C301.518 139.44 298.19 139.312 295.054 139.312C292.366 139.312 290.03 139.632 288.046 140.272C286.126 140.848 284.622 141.904 283.534 143.44C282.51 144.976 281.998 147.152 281.998 149.968V152.848C281.998 156.304 282.926 158.704 284.782 160.048C286.638 161.392 289.23 162.064 292.558 162.064H300.334C304.366 162.064 307.662 162.8 310.222 164.272C312.846 165.744 314.798 167.76 316.078 170.32C317.358 172.88 317.998 175.792 317.998 179.056V184.048C317.998 189.04 316.974 192.88 314.926 195.568C312.878 198.256 310.126 200.112 306.67 201.136C303.214 202.096 299.278 202.576 294.862 202.576Z" fill="white"/>
<path d="M326.065 202L349.681 131.248H361.969L385.585 202H375.505L369.265 183.472H342.193L336.049 202H326.065ZM344.497 174.736H366.865L355.729 139.696L344.497 174.736Z" fill="white"/>
<path d="M411.369 202L387.753 131.248H397.737L417.513 191.728L437.385 131.248H447.273L423.657 202H411.369Z" fill="white"/>
</svg>
