<svg width="40" height="40" viewBox="0 0 40 40" fill="none" xmlns="http://www.w3.org/2000/svg">
<path d="M8.9546 40H0.661452V13.2943H8.9546V40ZM4.80303 9.65143C2.15151 9.65143 0 7.45429 0 4.80286C0 2.15143 2.15008 0 4.80303 0C7.45598 0 9.60606 2.15 9.60606 4.80286C9.60606 7.45429 7.45455 9.65143 4.80303 9.65143ZM39.9929 40H31.7183V27C31.7183 23.9014 31.6554 19.9286 27.4067 19.9286C23.0951 19.9286 22.4337 23.2943 22.4337 26.7771V40H14.1491V13.2943H22.1022V16.9371H22.2179C23.3251 14.8386 26.0295 12.6243 30.0639 12.6243C38.4571 12.6243 40 18.1514 40 25.33V40H39.9929Z" fill="#00C4AC"/>
</svg>
