<svg width="225" height="42" viewBox="0 0 225 42" fill="none" xmlns="http://www.w3.org/2000/svg">
<path d="M29.1562 23.918C29.1562 25.3633 28.9935 26.6719 28.668 27.8438C28.3555 29.0156 27.8607 30.0182 27.1836 30.8516C26.5195 31.6719 25.6732 32.3099 24.6445 32.7656C23.6159 33.2214 22.3984 33.4492 20.9922 33.4492C19.5729 33.4492 18.3555 33.2214 17.3398 32.7656C16.3372 32.3099 15.4974 31.6719 14.8203 30.8516C14.1562 30.0182 13.6615 29.0091 13.3359 27.8242C13.0234 26.6393 12.8672 25.3242 12.8672 23.8789V7.51172H16.9102V23.918C16.9102 24.556 16.9557 25.2201 17.0469 25.9102C17.138 26.5872 17.3203 27.2188 17.5938 27.8047C17.8802 28.3906 18.2969 28.8724 18.8438 29.25C19.3906 29.6146 20.1068 29.7969 20.9922 29.7969C21.8646 29.7969 22.5742 29.6146 23.1211 29.25C23.668 28.8724 24.0911 28.3971 24.3906 27.8242C24.6901 27.2513 24.8854 26.6198 24.9766 25.9297C25.0677 25.2266 25.1133 24.556 25.1133 23.918V7.51172H29.1562V23.918ZM74.9102 16.8086H71.2969V11.1641H67.8594V29.3672H71.9023V33H59.793V29.3672H63.8164V11.1641H60.3398V16.8086H56.7461V7.51172H74.9102V16.8086ZM119.141 26.0078C119.141 27.1797 118.939 28.2279 118.535 29.1523C118.145 30.0638 117.604 30.8385 116.914 31.4766C116.237 32.1146 115.423 32.6029 114.473 32.9414C113.535 33.2799 112.533 33.4492 111.465 33.4492C110.267 33.4492 109.186 33.2344 108.223 32.8047C107.259 32.375 106.432 31.6654 105.742 30.6758V33H102.109V24.6797H105.742C105.742 25.513 105.885 26.2487 106.172 26.8867C106.471 27.5247 106.862 28.0651 107.344 28.5078C107.826 28.9375 108.385 29.2695 109.023 29.5039C109.661 29.7253 110.339 29.8359 111.055 29.8359C112.266 29.8359 113.242 29.556 113.984 28.9961C114.727 28.4362 115.098 27.5443 115.098 26.3203C115.098 25.6823 114.98 25.1354 114.746 24.6797C114.525 24.224 114.199 23.8203 113.77 23.4688C113.353 23.1042 112.839 22.7917 112.227 22.5312C111.615 22.2578 110.918 21.9714 110.137 21.6719C109.212 21.3594 108.288 21.0078 107.363 20.6172C106.439 20.2266 105.612 19.7448 104.883 19.1719C104.154 18.599 103.561 17.8958 103.105 17.0625C102.65 16.2161 102.422 15.1549 102.422 13.8789C102.422 12.7591 102.624 11.7826 103.027 10.9492C103.444 10.1029 103.991 9.39323 104.668 8.82031C105.358 8.2474 106.152 7.81771 107.051 7.53125C107.962 7.23177 108.926 7.08203 109.941 7.08203C111.113 7.08203 112.116 7.32943 112.949 7.82422C113.796 8.31901 114.447 8.97656 114.902 9.79688V7.51172H118.535V15.4414H114.902C114.902 13.944 114.505 12.7786 113.711 11.9453C112.93 11.099 111.875 10.6758 110.547 10.6758C109.375 10.6758 108.398 10.9492 107.617 11.4961C106.849 12.043 106.465 12.8112 106.465 13.8008C106.465 14.3086 106.562 14.7448 106.758 15.1094C106.966 15.4609 107.259 15.7865 107.637 16.0859C108.027 16.3724 108.516 16.6458 109.102 16.9062C109.688 17.1536 110.365 17.4271 111.133 17.7266C112.096 18.0651 113.053 18.4492 114.004 18.8789C114.954 19.3086 115.807 19.8359 116.562 20.4609C117.318 21.0859 117.936 21.8477 118.418 22.7461C118.9 23.6315 119.141 24.7188 119.141 26.0078ZM210.609 7.51172L202.66 33H198.051L190.102 7.51172H194.34L200.375 27.6875L206.371 7.51172H210.609Z" fill="white"/>
<path d="M160.677 19.4529C157.852 19.4529 155.552 17.1527 155.552 14.3277C155.552 11.5027 157.852 9.20251 160.677 9.20251C163.502 9.20251 165.802 11.5027 165.802 14.3277C165.802 17.1527 163.502 19.4529 160.677 19.4529ZM160.677 11.2526C158.982 11.2526 157.602 12.6323 157.602 14.3277C157.602 16.0231 158.982 17.4029 160.677 17.4029C162.373 17.4029 163.752 16.0231 163.752 14.3277C163.752 12.6323 162.373 11.2526 160.677 11.2526Z" fill="#00C4AC"/>
<path d="M134.026 42.0038C133.759 42.0038 133.497 41.8992 133.3 41.7045C133.019 41.4236 132.925 41.0033 133.062 40.6302C136.217 31.9563 139.534 27.5568 142.919 27.5568C144.036 27.5568 145.08 28.0365 146.025 28.9796C147.517 30.472 147.571 31.9584 147.353 32.9424C146.669 36.0339 142.302 39.0619 134.376 41.9443C134.262 41.9853 134.143 42.0038 134.026 42.0038ZM142.921 29.6049C141.906 29.6049 140.711 30.4946 139.467 32.1777C138.243 33.8321 137.013 36.1897 135.801 39.2034C138.538 38.1025 140.738 36.9852 142.359 35.872C144.547 34.3693 145.195 33.2069 145.353 32.4975C145.51 31.7882 145.256 31.1096 144.576 30.429C144.022 29.8755 143.481 29.6069 142.919 29.6069L142.921 29.6049Z" fill="#00C4AC"/>
<path d="M172.977 1.00205C167.657 1.00205 162.917 1.90409 158.885 3.68356C155.562 5.15142 152.716 7.20971 150.426 9.80512C150 10.2889 149.604 10.7789 149.237 11.2709C147.47 11.3878 145.662 12.091 143.858 13.362C142.33 14.4363 140.797 15.9246 139.296 17.784C136.775 20.9084 135.225 23.9897 135.159 24.1188C134.936 24.5678 135.069 25.1131 135.475 25.4063C135.655 25.5375 135.867 25.601 136.076 25.601C136.338 25.601 136.6 25.5006 136.799 25.3038C136.81 25.2935 137.789 24.33 139.46 23.3849C140.838 22.6058 142.962 21.6895 145.531 21.5275C146.18 23.1901 148.04 25.1787 148.932 26.0705C149.823 26.9623 151.812 28.8217 153.475 29.4716C153.313 32.0403 152.396 34.1642 151.617 35.5419C150.67 37.2148 149.709 38.1926 149.7 38.2008C149.346 38.5555 149.301 39.1172 149.594 39.5252C149.793 39.7999 150.104 39.9516 150.426 39.9516C150.582 39.9516 150.738 39.9168 150.883 39.843C151.013 39.7774 154.094 38.2275 157.218 35.7059C159.078 34.2052 160.566 32.6718 161.64 31.1445C162.911 29.3383 163.612 27.5322 163.731 25.765C164.221 25.4001 164.711 25.0044 165.197 24.576C167.792 22.286 169.851 19.4405 171.319 16.1173C173.098 12.0869 174 7.34501 174 2.02504V1H172.975L172.977 1.00205ZM139.37 21.1093C141.324 18.274 144.311 14.7581 147.677 13.6531C146.347 15.9841 145.658 18.1244 145.41 19.4815C143.034 19.6271 140.986 20.318 139.37 21.1093ZM153.897 35.628C154.688 34.0125 155.379 31.9665 155.523 29.5925C156.878 29.3445 159.02 28.6556 161.349 27.3272C160.242 30.6873 156.73 33.6743 153.897 35.628ZM163.842 23.0405C159.578 26.8024 155.162 27.6532 154.526 27.6532C154.522 27.6532 154.102 27.645 152.97 26.8475C152.181 26.2919 151.261 25.5006 150.383 24.6231C149.506 23.7457 148.714 22.8252 148.159 22.0359C147.361 20.9043 147.353 20.484 147.353 20.4799C147.353 19.8444 148.204 15.4285 151.966 11.1643C156.468 6.06371 163.358 3.27354 171.942 3.06649C171.735 11.6502 168.947 18.5405 163.844 23.0425L163.842 23.0405Z" fill="#00C4AC"/>
</svg>
