<svg width="40" height="32" viewBox="0 0 40 32" fill="none" xmlns="http://www.w3.org/2000/svg">
<path fill-rule="evenodd" clip-rule="evenodd" d="M4.74333 6.47833C4.79333 5.98667 4.605 5.50167 4.23833 5.17167L0.505 0.671667V0H12.1017L21.065 19.6583L28.945 0H40V0.671667L36.8067 3.73333C36.5317 3.94333 36.395 4.28833 36.4517 4.63V27.1267C36.395 27.4667 36.5317 27.8117 36.8067 28.0217L39.925 31.0833V31.755H24.2383V31.0833L27.47 27.9467C27.7867 27.63 27.7867 27.5367 27.7867 27.0517V8.86833L18.805 31.6817H17.5917L7.13333 8.86833V24.1583C7.04667 24.8 7.26 25.4483 7.71167 25.9117L11.9133 31.0083V31.6817H0V31.0083L4.20167 25.9117C4.65167 25.4467 4.85167 24.795 4.74333 24.1583V6.47833Z" fill="#00C4AC"/>
</svg>
