<svg width="164" height="28" viewBox="0 0 164 28" fill="none" xmlns="http://www.w3.org/2000/svg">
<path d="M12.7781 3.10938C13.2052 3.10938 13.5073 3.1875 13.6844 3.34375C13.8615 3.5 13.95 3.76042 13.95 4.125V7.71875C13.95 8.08333 13.8615 8.34375 13.6844 8.5C13.5073 8.65625 13.2052 8.73438 12.7781 8.73438C12.3823 8.73438 12.1115 8.59896 11.9656 8.32812C11.4656 7.38021 10.7625 6.66146 9.85625 6.17188C8.95 5.67188 7.91875 5.42188 6.7625 5.42188C5.61666 5.42188 4.72604 5.6875 4.09062 6.21875C3.46562 6.75 3.15312 7.46354 3.15312 8.35938C3.15312 8.78646 3.2625 9.14583 3.48125 9.4375C3.7 9.72917 4.0125 9.97917 4.41875 10.1875C4.78333 10.375 5.21041 10.5312 5.7 10.6562C6.18958 10.7708 6.84583 10.9062 7.66875 11.0625C8.56458 11.2396 9.27291 11.3906 9.79375 11.5156C10.325 11.6302 10.8458 11.7917 11.3562 12C12.3979 12.4271 13.2104 13.026 13.7937 13.7969C14.3875 14.5573 14.6844 15.5885 14.6844 16.8906C14.6844 17.974 14.4292 18.9271 13.9187 19.75C13.4083 20.5625 12.6531 21.1979 11.6531 21.6562C10.6635 22.1146 9.47083 22.3438 8.075 22.3438C7.03333 22.3438 6.06458 22.1562 5.16875 21.7812C4.28333 21.3958 3.5125 20.8385 2.85625 20.1094V21.3281C2.85625 21.6927 2.76771 21.9531 2.59062 22.1094C2.41354 22.2656 2.11146 22.3438 1.68437 22.3438C1.25729 22.3438 0.955205 22.2656 0.778122 22.1094C0.601039 21.9531 0.512497 21.6927 0.512497 21.3281V16.6406C0.512497 16.276 0.601039 16.0156 0.778122 15.8594C0.955205 15.7031 1.25729 15.625 1.68437 15.625C2.13229 15.625 2.43437 15.8438 2.59062 16.2812C3.01771 17.4896 3.69479 18.4167 4.62187 19.0625C5.55937 19.7083 6.71041 20.0312 8.075 20.0312C9.40833 20.0312 10.4292 19.7448 11.1375 19.1719C11.8562 18.599 12.2156 17.8385 12.2156 16.8906C12.2156 16.2344 12.049 15.7031 11.7156 15.2969C11.3927 14.8802 10.9187 14.5365 10.2937 14.2656C9.89791 14.0885 9.46562 13.9479 8.99687 13.8438C8.52812 13.7292 7.8875 13.5885 7.075 13.4219C6.22083 13.2552 5.50208 13.099 4.91875 12.9531C4.34583 12.8073 3.81458 12.625 3.325 12.4062C2.49166 12.0312 1.84062 11.526 1.37187 10.8906C0.913539 10.2448 0.684372 9.40104 0.684372 8.35938C0.684372 7.28646 0.93958 6.35417 1.45 5.5625C1.97083 4.77083 2.68958 4.16667 3.60625 3.75C4.53333 3.32292 5.58541 3.10938 6.7625 3.10938C7.67916 3.10938 8.56458 3.28646 9.41875 3.64062C10.2729 3.99479 11.0021 4.47396 11.6062 5.07812V4.125C11.6062 3.76042 11.6948 3.5 11.8719 3.34375C12.049 3.1875 12.351 3.10938 12.7781 3.10938ZM29.9875 3.10938C30.4146 3.10938 30.7167 3.1875 30.8937 3.34375C31.0708 3.5 31.1594 3.76042 31.1594 4.125V8.8125H37.5812C37.9354 8.8125 38.1854 8.89583 38.3312 9.0625C38.4875 9.21875 38.5656 9.48958 38.5656 9.875C38.5656 10.2604 38.4875 10.5365 38.3312 10.7031C38.1854 10.8594 37.9354 10.9375 37.5812 10.9375H31.1594V16.625C31.1594 17.8125 31.3625 18.6823 31.7687 19.2344C32.1854 19.7865 32.9042 20.0625 33.925 20.0625C34.6229 20.0625 35.3573 19.9219 36.1281 19.6406C36.899 19.3594 37.6437 18.9844 38.3625 18.5156C38.5083 18.4115 38.6698 18.3594 38.8469 18.3594C39.201 18.3594 39.5031 18.599 39.7531 19.0781C39.8885 19.349 39.9562 19.5833 39.9562 19.7812C39.9562 20.1146 39.7844 20.3854 39.4406 20.5938C38.6281 21.1042 37.7219 21.526 36.7219 21.8594C35.7219 22.1823 34.7896 22.3438 33.925 22.3438C32.1542 22.3438 30.8573 21.8854 30.0344 20.9688C29.2219 20.0417 28.8156 18.6615 28.8156 16.8281V10.9375H25.6437C25.2896 10.9375 25.0344 10.8594 24.8781 10.7031C24.7323 10.5365 24.6594 10.2604 24.6594 9.875C24.6594 9.48958 24.7323 9.21875 24.8781 9.0625C25.0344 8.89583 25.2896 8.8125 25.6437 8.8125H28.8156V4.125C28.8156 3.76042 28.9042 3.5 29.0812 3.34375C29.2583 3.1875 29.5604 3.10938 29.9875 3.10938ZM57.275 7.21875C59.2333 7.21875 60.7021 7.65625 61.6812 8.53125C62.6604 9.40625 63.15 10.7031 63.15 12.4219V18.6406C63.15 19.4635 63.4937 19.875 64.1812 19.875H64.7281C65.0823 19.875 65.3323 19.9583 65.4781 20.125C65.6344 20.2812 65.7125 20.5521 65.7125 20.9375C65.7125 21.3229 65.6344 21.599 65.4781 21.7656C65.3323 21.9219 65.0823 22 64.7281 22H63.7281C63.051 22 62.4677 21.8333 61.9781 21.5C61.499 21.1562 61.1865 20.6562 61.0406 20C60.1865 20.75 59.2594 21.3281 58.2594 21.7344C57.2698 22.1406 56.2177 22.3438 55.1031 22.3438C54.051 22.3438 53.1187 22.1667 52.3062 21.8125C51.5042 21.4479 50.874 20.9219 50.4156 20.2344C49.9573 19.5469 49.7281 18.7292 49.7281 17.7812C49.7281 16.1354 50.3167 14.9219 51.4937 14.1406C52.6708 13.349 54.1917 12.9531 56.0562 12.9531C57.7125 12.9531 59.2958 13.2188 60.8062 13.75V12.4219C60.8062 11.4115 60.5198 10.6719 59.9469 10.2031C59.3844 9.72396 58.4729 9.48438 57.2125 9.48438C56.4312 9.48438 55.6187 9.59375 54.775 9.8125C53.9312 10.0312 53.1292 10.3333 52.3687 10.7188C52.1917 10.8125 52.0302 10.8594 51.8844 10.8594C51.5406 10.8594 51.2542 10.6094 51.025 10.1094C50.9104 9.85938 50.8531 9.65104 50.8531 9.48438C50.8531 9.11979 51.0458 8.83854 51.4312 8.64062C52.3062 8.18229 53.2437 7.83333 54.2437 7.59375C55.2542 7.34375 56.2646 7.21875 57.275 7.21875ZM56.0719 15.1562C54.874 15.1562 53.926 15.3646 53.2281 15.7812C52.5406 16.1875 52.1969 16.8385 52.1969 17.7344C52.1969 18.4948 52.4573 19.0885 52.9781 19.5156C53.5094 19.9323 54.249 20.1406 55.1969 20.1406C57.2698 20.1406 59.1396 19.2812 60.8062 17.5625V15.8594C60.0979 15.6302 59.3375 15.4583 58.525 15.3438C57.7125 15.2188 56.8948 15.1562 56.0719 15.1562ZM86.7812 7.21875C87.5938 7.21875 88.3542 7.42708 89.0625 7.84375C89.4792 8.09375 89.6875 8.41667 89.6875 8.8125C89.6875 9 89.6406 9.21875 89.5469 9.46875C89.3281 10.0625 89.026 10.3594 88.6406 10.3594C88.4844 10.3594 88.3385 10.3177 88.2031 10.2344C87.6927 9.95312 87.1458 9.8125 86.5625 9.8125C85.625 9.8125 84.6823 10.1406 83.7344 10.7969C82.7865 11.4427 82.0052 12.3073 81.3906 13.3906C80.7865 14.474 80.4844 15.625 80.4844 16.8438V19.875H85.75C86.1042 19.875 86.3542 19.9583 86.5 20.125C86.6562 20.2812 86.7344 20.5521 86.7344 20.9375C86.7344 21.3229 86.6562 21.599 86.5 21.7656C86.3542 21.9219 86.1042 22 85.75 22H75.6875C75.3333 22 75.0781 21.9219 74.9219 21.7656C74.776 21.599 74.7031 21.3229 74.7031 20.9375C74.7031 20.5521 74.776 20.2812 74.9219 20.125C75.0781 19.9583 75.3333 19.875 75.6875 19.875H78.1406V9.6875H76.1562C75.8021 9.6875 75.5469 9.60938 75.3906 9.45312C75.2448 9.28646 75.1719 9.01042 75.1719 8.625C75.1719 8.23958 75.2448 7.96875 75.3906 7.8125C75.5469 7.64583 75.8021 7.5625 76.1562 7.5625H79.3438C79.6979 7.5625 79.9479 7.64583 80.0938 7.8125C80.25 7.96875 80.3281 8.23958 80.3281 8.625V11.7812C80.8281 10.8646 81.4323 10.0625 82.1406 9.375C82.849 8.6875 83.6042 8.15625 84.4062 7.78125C85.2083 7.40625 86 7.21875 86.7812 7.21875ZM104.35 3.10938C104.777 3.10938 105.079 3.1875 105.256 3.34375C105.433 3.5 105.522 3.76042 105.522 4.125V8.8125H111.944C112.298 8.8125 112.548 8.89583 112.694 9.0625C112.85 9.21875 112.928 9.48958 112.928 9.875C112.928 10.2604 112.85 10.5365 112.694 10.7031C112.548 10.8594 112.298 10.9375 111.944 10.9375H105.522V16.625C105.522 17.8125 105.725 18.6823 106.131 19.2344C106.548 19.7865 107.267 20.0625 108.287 20.0625C108.985 20.0625 109.72 19.9219 110.491 19.6406C111.261 19.3594 112.006 18.9844 112.725 18.5156C112.871 18.4115 113.032 18.3594 113.209 18.3594C113.564 18.3594 113.866 18.599 114.116 19.0781C114.251 19.349 114.319 19.5833 114.319 19.7812C114.319 20.1146 114.147 20.3854 113.803 20.5938C112.991 21.1042 112.084 21.526 111.084 21.8594C110.084 22.1823 109.152 22.3438 108.287 22.3438C106.517 22.3438 105.22 21.8854 104.397 20.9688C103.584 20.0417 103.178 18.6615 103.178 16.8281V10.9375H100.006C99.6521 10.9375 99.3969 10.8594 99.2406 10.7031C99.0948 10.5365 99.0219 10.2604 99.0219 9.875C99.0219 9.48958 99.0948 9.21875 99.2406 9.0625C99.3969 8.89583 99.6521 8.8125 100.006 8.8125H103.178V4.125C103.178 3.76042 103.267 3.5 103.444 3.34375C103.621 3.1875 103.923 3.10938 104.35 3.10938ZM136.637 0.21875C137.054 0.21875 137.398 0.296875 137.669 0.453125C137.94 0.609375 138.075 0.807292 138.075 1.04688C138.075 1.13021 138.059 1.21875 138.028 1.3125L127.528 26.9844C127.455 27.151 127.325 27.2865 127.137 27.3906C126.96 27.4948 126.752 27.5469 126.512 27.5469C126.096 27.5469 125.752 27.4688 125.481 27.3125C125.21 27.1562 125.075 26.9583 125.075 26.7188C125.075 26.6354 125.091 26.5469 125.122 26.4531L135.622 0.78125C135.695 0.614583 135.82 0.479167 135.997 0.375C136.184 0.270833 136.398 0.21875 136.637 0.21875ZM163.269 11.8125C163.529 11.9375 163.717 12.0833 163.831 12.25C163.946 12.4167 164.003 12.6302 164.003 12.8906C164.003 13.151 163.946 13.3646 163.831 13.5312C163.717 13.6979 163.529 13.8438 163.269 13.9688L151.128 19.9219C150.92 20.026 150.727 20.0781 150.55 20.0781C150.206 20.0781 149.92 19.8542 149.691 19.4062C149.566 19.1562 149.503 18.9375 149.503 18.75C149.503 18.4062 149.717 18.1302 150.144 17.9219L160.644 12.8906L150.144 7.85938C149.717 7.65104 149.503 7.375 149.503 7.03125C149.503 6.84375 149.566 6.625 149.691 6.375C149.92 5.92708 150.206 5.70312 150.55 5.70312C150.727 5.70312 150.92 5.75521 151.128 5.85938L163.269 11.8125Z" fill="white" fill-opacity="0.4"/>
</svg>
