<svg width="40" height="33" viewBox="0 0 40 33" fill="none" xmlns="http://www.w3.org/2000/svg">
<path d="M40 3.8492C38.529 4.50102 36.9488 4.94143 35.2876 5.14049C36.9823 4.12578 38.2824 2.51564 38.8954 0.598961C37.31 1.53968 35.5536 2.2232 33.6845 2.58963C32.1871 0.997094 30.0555 0 27.6949 0C23.1639 0 19.4891 3.6748 19.4891 8.20929C19.4891 8.85053 19.5631 9.47415 19.7005 10.0766C12.8777 9.73312 6.83344 6.46526 2.78516 1.50093C2.0805 2.71646 1.67533 4.12578 1.67533 5.62671C1.67533 8.47354 3.12516 10.9874 5.32546 12.4584C3.97956 12.4143 2.7147 12.0462 1.60838 11.4313V11.537C1.60838 15.5131 4.43583 18.8303 8.19167 19.5842C7.5011 19.771 6.77706 19.8696 6.03012 19.8696C5.50163 19.8696 4.98547 19.8203 4.48516 19.7252C5.52982 22.9842 8.55985 25.3589 12.1519 25.4224C9.34203 27.6244 5.80287 28.9368 1.95895 28.9368C1.29657 28.9368 0.642999 28.8981 0 28.8223C3.63252 31.153 7.94504 32.5095 12.5782 32.5095C27.6755 32.5095 35.9288 20.0053 35.9288 9.16058C35.9288 8.80825 35.92 8.4524 35.9042 8.10007C37.5073 6.9409 38.899 5.49811 39.9965 3.85449L40 3.8492Z" fill="#00C4AC"/>
</svg>
