<svg width="496" height="42" viewBox="0 0 496 42" fill="none" xmlns="http://www.w3.org/2000/svg">
<path d="M25.3203 1.41406L19.8125 32H16.0156L12.8984 17.0703L9.73438 32H5.98438L0.523438 1.41406H3.92188L8.23438 26.5859L11.3047 10.1562H14.4688L17.5625 26.5859L21.875 1.41406H25.3203ZM31.4141 22.2031C31.6484 24.5156 32.4922 26.3594 33.9453 27.7344C35.3984 29.1094 37.2891 29.7969 39.6172 29.7969C41.2578 29.7969 42.7188 29.4609 44 28.7891C45.2812 28.1172 46.2422 27.2812 46.8828 26.2812L49.1328 27.8281C48.0391 29.3594 46.7344 30.5312 45.2188 31.3438C43.7031 32.1406 41.8359 32.5391 39.6172 32.5391C37.9297 32.5391 36.3828 32.2578 34.9766 31.6953C33.5703 31.1328 32.3516 30.3516 31.3203 29.3516C30.3047 28.3359 29.5156 27.1328 28.9531 25.7422C28.3906 24.3516 28.1094 22.8047 28.1094 21.1016C28.1094 19.4453 28.3594 17.9219 28.8594 16.5312C29.375 15.125 30.1094 13.9141 31.0625 12.8984C32.0312 11.8672 33.2031 11.0703 34.5781 10.5078C35.9531 9.92969 37.4922 9.64062 39.1953 9.64062C41.0547 9.64062 42.6797 9.95312 44.0703 10.5781C45.4609 11.2031 46.6172 12.0703 47.5391 13.1797C48.4766 14.2734 49.1641 15.5859 49.6016 17.1172C50.0547 18.6484 50.2812 20.3438 50.2812 22.2031H31.4141ZM46.8828 19.4609C46.5234 17.0703 45.6562 15.2891 44.2812 14.1172C42.9062 12.9453 41.2109 12.3594 39.1953 12.3594C38.1641 12.3594 37.2109 12.5312 36.3359 12.875C35.4609 13.2031 34.6875 13.6797 34.0156 14.3047C33.3438 14.9297 32.7812 15.6875 32.3281 16.5781C31.875 17.4531 31.5859 18.4141 31.4609 19.4609H46.8828ZM71.8672 32H58.7656V29.2578H63.7109V4.15625H58.7656V1.41406H66.9453V29.2578H71.8672V32ZM101.633 27.8281C100.711 29.2656 99.4453 30.4141 97.8359 31.2734C96.2422 32.1172 94.3438 32.5391 92.1406 32.5391C90.4375 32.5391 88.875 32.2578 87.4531 31.6953C86.0312 31.1328 84.8125 30.3516 83.7969 29.3516C82.7969 28.3359 82.0156 27.1328 81.4531 25.7422C80.8906 24.3516 80.6094 22.8047 80.6094 21.1016C80.6094 19.4453 80.8672 17.9141 81.3828 16.5078C81.8984 15.0859 82.6328 13.875 83.5859 12.875C84.5391 11.8594 85.7031 11.0703 87.0781 10.5078C88.4688 9.92969 90.0078 9.64062 91.6953 9.64062C92.3672 9.64062 93.0547 9.71875 93.7578 9.875C94.4609 10.0312 95.125 10.2734 95.75 10.6016C96.375 10.9141 96.9375 11.2969 97.4375 11.75C97.9375 12.1875 98.3125 12.7109 98.5625 13.3203V10.1562H101.445V18.8984H98.5625C98.5625 17.9297 98.3828 17.0469 98.0234 16.25C97.6797 15.4531 97.2031 14.7656 96.5938 14.1875C95.9844 13.6094 95.2578 13.1641 94.4141 12.8516C93.5703 12.5234 92.6641 12.3594 91.6953 12.3594C90.3828 12.3594 89.2344 12.5859 88.25 13.0391C87.2812 13.4922 86.4688 14.1094 85.8125 14.8906C85.1562 15.6719 84.6562 16.5938 84.3125 17.6562C83.9844 18.7031 83.8203 19.8516 83.8203 21.1016C83.8203 22.3516 84.0078 23.5078 84.3828 24.5703C84.7734 25.6172 85.3281 26.5234 86.0469 27.2891C86.7812 28.0547 87.6562 28.6641 88.6719 29.1172C89.7031 29.5703 90.8594 29.7969 92.1406 29.7969C93.7656 29.7969 95.2109 29.4766 96.4766 28.8359C97.7422 28.1953 98.7109 27.3438 99.3828 26.2812L101.633 27.8281ZM129.219 21.1484C129.219 22.8516 128.945 24.3984 128.398 25.7891C127.867 27.1797 127.094 28.375 126.078 29.375C125.078 30.3594 123.875 31.1328 122.469 31.6953C121.062 32.2578 119.492 32.5391 117.758 32.5391C116.055 32.5391 114.5 32.2578 113.094 31.6953C111.688 31.1328 110.477 30.3594 109.461 29.375C108.461 28.375 107.688 27.1797 107.141 25.7891C106.609 24.3984 106.344 22.8516 106.344 21.1484C106.344 19.4922 106.609 17.9531 107.141 16.5312C107.688 15.0938 108.461 13.875 109.461 12.875C110.477 11.8594 111.688 11.0703 113.094 10.5078C114.5 9.92969 116.055 9.64062 117.758 9.64062C119.492 9.64062 121.062 9.92969 122.469 10.5078C123.875 11.0703 125.078 11.8594 126.078 12.875C127.094 13.875 127.867 15.0938 128.398 16.5312C128.945 17.9531 129.219 19.4922 129.219 21.1484ZM126.008 21.1484C126.008 19.8984 125.82 18.75 125.445 17.7031C125.086 16.6406 124.547 15.7109 123.828 14.9141C123.109 14.1172 122.234 13.4922 121.203 13.0391C120.188 12.5859 119.039 12.3594 117.758 12.3594C116.477 12.3594 115.32 12.5859 114.289 13.0391C113.273 13.4922 112.414 14.1172 111.711 14.9141C111.008 15.7109 110.469 16.6406 110.094 17.7031C109.734 18.75 109.555 19.8984 109.555 21.1484C109.555 22.3984 109.734 23.5547 110.094 24.6172C110.469 25.6641 111.008 26.5703 111.711 27.3359C112.414 28.1016 113.273 28.7031 114.289 29.1406C115.32 29.5781 116.477 29.7969 117.758 29.7969C119.039 29.7969 120.188 29.5781 121.203 29.1406C122.234 28.7031 123.109 28.1016 123.828 27.3359C124.547 26.5703 125.086 25.6641 125.445 24.6172C125.82 23.5547 126.008 22.3984 126.008 21.1484ZM154.859 32H151.648V16.2969C151.648 15.0469 151.43 14.0781 150.992 13.3906C150.555 12.7031 149.922 12.3594 149.094 12.3594C147.875 12.3594 146.977 13 146.398 14.2812C145.836 15.5625 145.555 17.3594 145.555 19.6719V32H142.32V16.2969C142.32 15.0469 142.094 14.0781 141.641 13.3906C141.203 12.7031 140.57 12.3594 139.742 12.3594C138.977 12.3594 138.367 12.5859 137.914 13.0391C137.461 13.4922 137.102 14.0703 136.836 14.7734C136.586 15.4766 136.422 16.2578 136.344 17.1172C136.266 17.9766 136.227 18.8281 136.227 19.6719V32H133.016V10.1562H136.227V13.3203C136.898 10.8672 138.359 9.64062 140.609 9.64062C142.75 9.64062 144.203 10.7109 144.969 12.8516C146.031 10.7109 147.531 9.64062 149.469 9.64062C151.328 9.64062 152.688 10.1953 153.547 11.3047C154.422 12.3984 154.859 14.0625 154.859 16.2969V32ZM162.43 22.2031C162.664 24.5156 163.508 26.3594 164.961 27.7344C166.414 29.1094 168.305 29.7969 170.633 29.7969C172.273 29.7969 173.734 29.4609 175.016 28.7891C176.297 28.1172 177.258 27.2812 177.898 26.2812L180.148 27.8281C179.055 29.3594 177.75 30.5312 176.234 31.3438C174.719 32.1406 172.852 32.5391 170.633 32.5391C168.945 32.5391 167.398 32.2578 165.992 31.6953C164.586 31.1328 163.367 30.3516 162.336 29.3516C161.32 28.3359 160.531 27.1328 159.969 25.7422C159.406 24.3516 159.125 22.8047 159.125 21.1016C159.125 19.4453 159.375 17.9219 159.875 16.5312C160.391 15.125 161.125 13.9141 162.078 12.8984C163.047 11.8672 164.219 11.0703 165.594 10.5078C166.969 9.92969 168.508 9.64062 170.211 9.64062C172.07 9.64062 173.695 9.95312 175.086 10.5781C176.477 11.2031 177.633 12.0703 178.555 13.1797C179.492 14.2734 180.18 15.5859 180.617 17.1172C181.07 18.6484 181.297 20.3438 181.297 22.2031H162.43ZM177.898 19.4609C177.539 17.0703 176.672 15.2891 175.297 14.1172C173.922 12.9453 172.227 12.3594 170.211 12.3594C169.18 12.3594 168.227 12.5312 167.352 12.875C166.477 13.2031 165.703 13.6797 165.031 14.3047C164.359 14.9297 163.797 15.6875 163.344 16.5781C162.891 17.4531 162.602 18.4141 162.477 19.4609H177.898ZM233.703 25.0391C233.453 27.3359 232.547 29.1641 230.984 30.5234C229.438 31.8672 227.5 32.5391 225.172 32.5391C223.891 32.5391 222.719 32.3281 221.656 31.9062C220.594 31.4844 219.688 30.8984 218.938 30.1484C218.188 29.3984 217.602 28.5 217.18 27.4531C216.773 26.3906 216.57 25.2344 216.57 23.9844V12.8984H211.625V10.1562H216.57V1.41406H219.781V10.1562H229.086V12.8984H219.781V23.9844C219.781 24.7812 219.906 25.5312 220.156 26.2344C220.422 26.9375 220.781 27.5547 221.234 28.0859C221.703 28.6172 222.266 29.0391 222.922 29.3516C223.578 29.6484 224.328 29.7969 225.172 29.7969C226.766 29.7969 228.094 29.3047 229.156 28.3203C230.234 27.3203 230.852 26.0312 231.008 24.4531L233.703 25.0391ZM260.234 21.1484C260.234 22.8516 259.961 24.3984 259.414 25.7891C258.883 27.1797 258.109 28.375 257.094 29.375C256.094 30.3594 254.891 31.1328 253.484 31.6953C252.078 32.2578 250.508 32.5391 248.773 32.5391C247.07 32.5391 245.516 32.2578 244.109 31.6953C242.703 31.1328 241.492 30.3594 240.477 29.375C239.477 28.375 238.703 27.1797 238.156 25.7891C237.625 24.3984 237.359 22.8516 237.359 21.1484C237.359 19.4922 237.625 17.9531 238.156 16.5312C238.703 15.0938 239.477 13.875 240.477 12.875C241.492 11.8594 242.703 11.0703 244.109 10.5078C245.516 9.92969 247.07 9.64062 248.773 9.64062C250.508 9.64062 252.078 9.92969 253.484 10.5078C254.891 11.0703 256.094 11.8594 257.094 12.875C258.109 13.875 258.883 15.0938 259.414 16.5312C259.961 17.9531 260.234 19.4922 260.234 21.1484ZM257.023 21.1484C257.023 19.8984 256.836 18.75 256.461 17.7031C256.102 16.6406 255.562 15.7109 254.844 14.9141C254.125 14.1172 253.25 13.4922 252.219 13.0391C251.203 12.5859 250.055 12.3594 248.773 12.3594C247.492 12.3594 246.336 12.5859 245.305 13.0391C244.289 13.4922 243.43 14.1172 242.727 14.9141C242.023 15.7109 241.484 16.6406 241.109 17.7031C240.75 18.75 240.57 19.8984 240.57 21.1484C240.57 22.3984 240.75 23.5547 241.109 24.6172C241.484 25.6641 242.023 26.5703 242.727 27.3359C243.43 28.1016 244.289 28.7031 245.305 29.1406C246.336 29.5781 247.492 29.7969 248.773 29.7969C250.055 29.7969 251.203 29.5781 252.219 29.1406C253.25 28.7031 254.125 28.1016 254.844 27.3359C255.562 26.5703 256.102 25.6641 256.461 24.6172C256.836 23.5547 257.023 22.3984 257.023 21.1484ZM312.078 32H308.867V16.2969C308.867 15.0469 308.648 14.0781 308.211 13.3906C307.773 12.7031 307.141 12.3594 306.312 12.3594C305.094 12.3594 304.195 13 303.617 14.2812C303.055 15.5625 302.773 17.3594 302.773 19.6719V32H299.539V16.2969C299.539 15.0469 299.312 14.0781 298.859 13.3906C298.422 12.7031 297.789 12.3594 296.961 12.3594C296.195 12.3594 295.586 12.5859 295.133 13.0391C294.68 13.4922 294.32 14.0703 294.055 14.7734C293.805 15.4766 293.641 16.2578 293.562 17.1172C293.484 17.9766 293.445 18.8281 293.445 19.6719V32H290.234V10.1562H293.445V13.3203C294.117 10.8672 295.578 9.64062 297.828 9.64062C299.969 9.64062 301.422 10.7109 302.188 12.8516C303.25 10.7109 304.75 9.64062 306.688 9.64062C308.547 9.64062 309.906 10.1953 310.766 11.3047C311.641 12.3984 312.078 14.0625 312.078 16.2969V32ZM338.961 10.1562L327.148 37.5312C326.539 39.0625 325.68 40.0625 324.57 40.5312C323.461 41.0156 322.234 41.2578 320.891 41.2578C319.391 41.2578 317.891 40.9844 316.391 40.4375L317.023 37.6719C317.758 37.9844 318.477 38.2031 319.18 38.3281C319.883 38.4688 320.453 38.5391 320.891 38.5391C321.953 38.5391 322.68 38.2812 323.07 37.7656C323.477 37.25 323.828 36.6406 324.125 35.9375L325.461 32.6328L315.711 10.1562H319.508L327.383 29.2578L335.117 10.1562H338.961Z" fill="white"/>
<path d="M389.914 24.0312C389.914 25.3125 389.648 26.4766 389.117 27.5234C388.586 28.5547 387.875 29.4453 386.984 30.1953C386.094 30.9453 385.07 31.5234 383.914 31.9297C382.758 32.3359 381.555 32.5391 380.305 32.5391C378.586 32.5391 377.008 32.2188 375.57 31.5781C374.133 30.9375 372.992 29.9922 372.148 28.7422V32H369.43V22.6953H372.148C372.148 23.7422 372.391 24.7031 372.875 25.5781C373.359 26.4375 373.977 27.1797 374.727 27.8047C375.477 28.4297 376.336 28.9219 377.305 29.2812C378.289 29.625 379.289 29.7969 380.305 29.7969C381.211 29.7969 382.047 29.6719 382.812 29.4219C383.578 29.1562 384.25 28.7891 384.828 28.3203C385.406 27.8359 385.859 27.25 386.188 26.5625C386.531 25.875 386.703 25.0938 386.703 24.2188C386.703 23.2344 386.484 22.3906 386.047 21.6875C385.625 20.9844 385.047 20.3828 384.312 19.8828C383.594 19.3828 382.781 18.9609 381.875 18.6172C380.969 18.2578 380.047 17.9062 379.109 17.5625C378 17.1719 376.891 16.7656 375.781 16.3438C374.672 15.9062 373.68 15.3594 372.805 14.7031C371.93 14.0469 371.219 13.25 370.672 12.3125C370.125 11.3594 369.852 10.1797 369.852 8.77344C369.852 7.52344 370.117 6.41406 370.648 5.44531C371.18 4.46094 371.875 3.63281 372.734 2.96094C373.594 2.28906 374.594 1.78125 375.734 1.4375C376.875 1.07813 378.047 0.898438 379.25 0.898438C380.734 0.898438 382.102 1.20312 383.352 1.8125C384.617 2.42188 385.602 3.35156 386.305 4.60156V1.41406H389.141V10.1562H386.305C386.305 9.23438 386.109 8.375 385.719 7.57812C385.344 6.76562 384.828 6.07812 384.172 5.51562C383.516 4.9375 382.766 4.48438 381.922 4.15625C381.078 3.8125 380.188 3.64062 379.25 3.64062C378.422 3.64062 377.633 3.73438 376.883 3.92188C376.133 4.10938 375.477 4.41406 374.914 4.83594C374.352 5.24219 373.898 5.77344 373.555 6.42969C373.227 7.08594 373.062 7.86719 373.062 8.77344C373.062 9.57031 373.258 10.25 373.648 10.8125C374.055 11.375 374.594 11.875 375.266 12.3125C375.938 12.7344 376.711 13.125 377.586 13.4844C378.477 13.8281 379.383 14.1797 380.305 14.5391C381.461 14.9453 382.609 15.3984 383.75 15.8984C384.891 16.3984 385.914 17 386.82 17.7031C387.727 18.4062 388.469 19.2734 389.047 20.3047C389.625 21.3203 389.914 22.5625 389.914 24.0312ZM416.891 21.1016C416.891 22.8047 416.625 24.3516 416.094 25.7422C415.562 27.1328 414.812 28.3359 413.844 29.3516C412.891 30.3516 411.734 31.1328 410.375 31.6953C409.016 32.2578 407.492 32.5391 405.805 32.5391C404.648 32.5391 403.523 32.3281 402.43 31.9062C401.352 31.4844 400.344 30.8594 399.406 30.0312V40.7422H396.195V10.1562H399.406V12.1719C401.391 10.4844 403.523 9.64062 405.805 9.64062C407.492 9.64062 409.016 9.92188 410.375 10.4844C411.734 11.0312 412.891 11.8203 413.844 12.8516C414.812 13.8672 415.562 15.0859 416.094 16.5078C416.625 17.9141 416.891 19.4453 416.891 21.1016ZM413.68 21.1016C413.68 19.8828 413.508 18.7422 413.164 17.6797C412.836 16.6016 412.336 15.6719 411.664 14.8906C410.992 14.1094 410.164 13.4922 409.18 13.0391C408.211 12.5859 407.086 12.3594 405.805 12.3594C404.586 12.3594 403.445 12.5859 402.383 13.0391C401.336 13.4922 400.344 14.2266 399.406 15.2422V26.9609C400.344 27.9766 401.336 28.7031 402.383 29.1406C403.445 29.5781 404.586 29.7969 405.805 29.7969C407.086 29.7969 408.211 29.5703 409.18 29.1172C410.164 28.6641 410.992 28.0469 411.664 27.2656C412.336 26.4844 412.836 25.5703 413.164 24.5234C413.508 23.4609 413.68 22.3203 413.68 21.1016ZM421.203 26.0938C421.203 24.7188 421.547 23.5703 422.234 22.6484C422.922 21.7109 423.82 20.9766 424.93 20.4453C426.055 19.8984 427.336 19.5078 428.773 19.2734C430.227 19.0234 431.703 18.8984 433.203 18.8984C433.781 18.8984 434.297 18.9062 434.75 18.9219C435.219 18.9375 435.656 18.9609 436.062 18.9922C436.484 19.0234 436.906 19.0625 437.328 19.1094C437.75 19.1562 438.211 19.2109 438.711 19.2734V17.7031C438.711 16.6406 438.477 15.7656 438.008 15.0781C437.555 14.3906 436.992 13.8516 436.32 13.4609C435.648 13.0547 434.945 12.7734 434.211 12.6172C433.477 12.4453 432.852 12.3594 432.336 12.3594C430.711 12.3594 429.211 12.5781 427.836 13.0156C426.461 13.4531 425.18 14.0391 423.992 14.7734L422.539 12.3594C423.852 11.5625 425.32 10.9141 426.945 10.4141C428.586 9.89844 430.383 9.64062 432.336 9.64062C433.523 9.64062 434.688 9.79688 435.828 10.1094C436.984 10.4062 438.016 10.875 438.922 11.5156C439.844 12.1406 440.578 12.9688 441.125 14C441.672 15.0312 441.945 16.2656 441.945 17.7031V32H438.711V28.3438C438.148 29.0469 437.508 29.6641 436.789 30.1953C436.086 30.7266 435.344 31.1641 434.562 31.5078C433.781 31.8359 433 32.0859 432.219 32.2578C431.438 32.4453 430.695 32.5391 429.992 32.5391C427.102 32.5391 424.914 31.9844 423.43 30.875C421.945 29.7656 421.203 28.1719 421.203 26.0938ZM429.992 29.7969C431.336 29.7969 432.539 29.6016 433.602 29.2109C434.68 28.8047 435.594 28.3047 436.344 27.7109C437.094 27.1172 437.672 26.4844 438.078 25.8125C438.5 25.1406 438.711 24.5312 438.711 23.9844V21.9219C437.664 21.7656 436.656 21.6797 435.688 21.6641C434.734 21.6484 433.906 21.6406 433.203 21.6406C432.047 21.6406 430.93 21.7188 429.852 21.875C428.789 22.0312 427.859 22.2891 427.062 22.6484C426.266 22.9922 425.625 23.4453 425.141 24.0078C424.656 24.5703 424.414 25.2656 424.414 26.0938C424.414 27.0156 424.859 27.8672 425.75 28.6484C426.656 29.4141 428.07 29.7969 429.992 29.7969ZM468.477 27.8281C467.555 29.2656 466.289 30.4141 464.68 31.2734C463.086 32.1172 461.188 32.5391 458.984 32.5391C457.281 32.5391 455.719 32.2578 454.297 31.6953C452.875 31.1328 451.656 30.3516 450.641 29.3516C449.641 28.3359 448.859 27.1328 448.297 25.7422C447.734 24.3516 447.453 22.8047 447.453 21.1016C447.453 19.4453 447.711 17.9141 448.227 16.5078C448.742 15.0859 449.477 13.875 450.43 12.875C451.383 11.8594 452.547 11.0703 453.922 10.5078C455.312 9.92969 456.852 9.64062 458.539 9.64062C459.211 9.64062 459.898 9.71875 460.602 9.875C461.305 10.0312 461.969 10.2734 462.594 10.6016C463.219 10.9141 463.781 11.2969 464.281 11.75C464.781 12.1875 465.156 12.7109 465.406 13.3203V10.1562H468.289V18.8984H465.406C465.406 17.9297 465.227 17.0469 464.867 16.25C464.523 15.4531 464.047 14.7656 463.438 14.1875C462.828 13.6094 462.102 13.1641 461.258 12.8516C460.414 12.5234 459.508 12.3594 458.539 12.3594C457.227 12.3594 456.078 12.5859 455.094 13.0391C454.125 13.4922 453.312 14.1094 452.656 14.8906C452 15.6719 451.5 16.5938 451.156 17.6562C450.828 18.7031 450.664 19.8516 450.664 21.1016C450.664 22.3516 450.852 23.5078 451.227 24.5703C451.617 25.6172 452.172 26.5234 452.891 27.2891C453.625 28.0547 454.5 28.6641 455.516 29.1172C456.547 29.5703 457.703 29.7969 458.984 29.7969C460.609 29.7969 462.055 29.4766 463.32 28.8359C464.586 28.1953 465.555 27.3438 466.227 26.2812L468.477 27.8281ZM476.867 22.2031C477.102 24.5156 477.945 26.3594 479.398 27.7344C480.852 29.1094 482.742 29.7969 485.07 29.7969C486.711 29.7969 488.172 29.4609 489.453 28.7891C490.734 28.1172 491.695 27.2812 492.336 26.2812L494.586 27.8281C493.492 29.3594 492.188 30.5312 490.672 31.3438C489.156 32.1406 487.289 32.5391 485.07 32.5391C483.383 32.5391 481.836 32.2578 480.43 31.6953C479.023 31.1328 477.805 30.3516 476.773 29.3516C475.758 28.3359 474.969 27.1328 474.406 25.7422C473.844 24.3516 473.562 22.8047 473.562 21.1016C473.562 19.4453 473.812 17.9219 474.312 16.5312C474.828 15.125 475.562 13.9141 476.516 12.8984C477.484 11.8672 478.656 11.0703 480.031 10.5078C481.406 9.92969 482.945 9.64062 484.648 9.64062C486.508 9.64062 488.133 9.95312 489.523 10.5781C490.914 11.2031 492.07 12.0703 492.992 13.1797C493.93 14.2734 494.617 15.5859 495.055 17.1172C495.508 18.6484 495.734 20.3438 495.734 22.2031H476.867ZM492.336 19.4609C491.977 17.0703 491.109 15.2891 489.734 14.1172C488.359 12.9453 486.664 12.3594 484.648 12.3594C483.617 12.3594 482.664 12.5312 481.789 12.875C480.914 13.2031 480.141 13.6797 479.469 14.3047C478.797 14.9297 478.234 15.6875 477.781 16.5781C477.328 17.4531 477.039 18.4141 476.914 19.4609H492.336Z" fill="#00C4AC"/>
</svg>
